<?xml version="1.0" encoding="utf-8"?>
<!-- Generator: Adobe Illustrator 21.1.0, SVG Export Plug-In . SVG Version: 6.00 Build 0)  -->
<svg version="1.1" id="Capa_1" xmlns="http://www.w3.org/2000/svg" xmlns:xlink="http://www.w3.org/1999/xlink" x="0px" y="0px"
	 width="512px" height="512px" viewBox="0 0 512 512" style="enable-background:new 0 0 512 512;" xml:space="preserve">
<style type="text/css">
	.st0{fill:#2F63C8;}
</style>
<g>
	<path class="st0" d="M368,0H144c-26.4,0-48,21.6-48,48v416c0,26.4,21.6,48,48,48h224c26.4,0,48-21.6,48-48V48
		C416,21.6,394.4,0,368,0z M192,24h128v16H192V24z M256,480c-17.7,0-32-14.3-32-32s14.3-32,32-32s32,14.3,32,32S273.7,480,256,480z
		 M384,384H128V64h256V384z"/>
</g>
</svg>
