<?xml version="1.0" encoding="utf-8"?>
<!-- Generator: Adobe Illustrator 21.1.0, SVG Export Plug-In . SVG Version: 6.00 Build 0)  -->
<svg version="1.1" id="Capa_1" xmlns="http://www.w3.org/2000/svg" xmlns:xlink="http://www.w3.org/1999/xlink" x="0px" y="0px"
	 width="246px" height="246px" viewBox="0 0 246 246" style="enable-background:new 0 0 246 246;" xml:space="preserve">
<style type="text/css">
	.st0{fill:#2F63C8;}
</style>
<g>
	<g>
		<path class="st0" d="M20.4,217.2h3.5c-3.3-6.1-5.3-13.4-5.3-21.3v-80.3c0-7.9,1.9-15.2,5.3-21.3h-3.5c-11.3,0-20.5,9.2-20.5,20.5
			v81.9C-0.1,208.1,9.1,217.2,20.4,217.2z"/>
		<path class="st0" d="M75.9,217.2h149.6c11.3,0,20.5-9.2,20.5-20.5v-81.9c0-11.3-9.2-20.5-20.5-20.5h-12.5v-41
			c0-15.6-11.9-28.3-26.6-28.3h-76.5c-14.6,0-26.6,12.7-26.6,28.3v41h-7.4c3.3,6.1,5.3,13.4,5.3,21.3v80.3
			C81.2,203.8,79.2,211.1,75.9,217.2z M205.1,202.8c-4.9,0-8.9-4-8.9-8.9s4-8.9,8.9-8.9s8.9,4,8.9,8.9S209.9,202.8,205.1,202.8z
			 M216.1,137.9v33.6H101.9v-33.6H216.1z M95.6,53.3c0-8.8,6.4-16,14.3-16h76.5c7.9,0,14.3,7.2,14.3,16v45.1c0,8.8-6.4,16-14.3,16
			h-76.5c-7.9,0-14.3-7.2-14.3-16C95.6,98.4,95.6,53.3,95.6,53.3z"/>
		<path class="st0" d="M49.9,226.8c13.1,0,23.7-13.8,23.7-30.9v-80.3c0-17.1-10.6-30.9-23.7-30.9s-23.7,13.8-23.7,30.9v80.3
			C26.2,213,36.8,226.8,49.9,226.8z"/>
		<path class="st0" d="M109.4,58h77.1c2.6,0,4.8-2.1,4.8-4.8c0-2.6-2.1-4.8-4.8-4.8h-77.1c-2.6,0-4.8,2.1-4.8,4.8
			C104.6,55.9,106.8,58,109.4,58z"/>
		<path class="st0" d="M109.4,80.1h77.1c2.6,0,4.8-2.1,4.8-4.8c0-2.7-2.1-4.8-4.8-4.8h-77.1c-2.6,0-4.8,2.1-4.8,4.8
			C104.6,78,106.8,80.1,109.4,80.1z"/>
		<path class="st0" d="M109.4,102.3h77.1c2.6,0,4.8-2.1,4.8-4.8c0-2.6-2.1-4.8-4.8-4.8h-77.1c-2.6,0-4.8,2.1-4.8,4.8
			C104.6,100.1,106.8,102.3,109.4,102.3z"/>
	</g>
</g>
</svg>
