<?xml version="1.0" encoding="utf-8"?>
<!-- Generator: Adobe Illustrator 22.1.0, SVG Export Plug-In . SVG Version: 6.00 Build 0)  -->
<svg version="1.1" id="レイヤー_1" xmlns="http://www.w3.org/2000/svg" xmlns:xlink="http://www.w3.org/1999/xlink" x="0px"
	 y="0px" width="252px" height="80px" viewBox="0 0 252 80" style="enable-background:new 0 0 252 80;" xml:space="preserve">
<style type="text/css">
	.st0{fill:#3B64C1;}
</style>
<path class="st0" d="M20.1,43.4H6.5c-1.1,0-2.3,1.1-2.4,2.4v27.6c0,1.1,1.1,2.3,2.4,2.4h13.6c1.1,0,2.3-1.1,2.4-2.4V45.8
	C22.5,44.6,21.4,43.5,20.1,43.4 M18.6,44.9c0.3,0,0.6,0.3,0.6,0.6S18.9,46,18.6,46S18,45.8,18,45.5S18.3,44.9,18.6,44.9 M10.2,45.2
	h6.2v0.7h-6.2V45.2z M13.4,74.1c-0.8,0-1.6-0.8-1.6-1.6c0-0.8,0.8-1.6,1.6-1.6s1.6,0.8,1.6,1.6C14.9,73.5,14.2,74.1,13.4,74.1
	 M20.7,69.6H6.2V47.5h14.6L20.7,69.6z"/>
<path class="st0" d="M39.3,55.7c0-4.2,2.9-7.8,7.6-7.7c4.8,0,7.6,3.6,7.6,7.7v9.9c0,5.8-3.1,8.5-7.6,8.6c-4.4,0-7.6-2.8-7.6-8.6
	V55.7z M51.2,55.7c0-2.4-1.3-4.7-4.5-4.7s-4.4,2.4-4.5,4.7v10.9c0,2.4,1.3,4.7,4.5,4.7s4.4-2.4,4.5-4.7V55.7z"/>
<path class="st0" d="M59.1,62.2v-14h12.4V51H62v7c1.2-0.5,2.2-0.6,3.4-0.7c3.4,0,7.8,2.6,7.9,8.1c0,4.5-3.4,8.3-8,8.3
	c-4,0-6.2-1.6-8.1-4.5l2.5-1.7c1.1,2.2,3,3.5,5.2,3.5c2.3,0,5.1-1.7,5.2-5.5c0-3.1-2.3-5.4-5.3-5.4c-1.8,0-3.7,0.6-5.4,2.3
	L59.1,62.2z"/>
<path class="st0" d="M78,62.2v-14h12.4V51h-9.5v7c1.2-0.5,2.2-0.6,3.4-0.7c3.4,0,7.8,2.6,7.9,8.1c0,4.5-3.4,8.3-8,8.3
	c-4,0-6.2-1.6-8.1-4.5l2.5-1.7c1.1,2.2,3,3.5,5.2,3.5c2.2-0.1,5.1-1.7,5.2-5.5c0-3.1-2.3-5.4-5.3-5.4c-1.8,0-3.7,0.6-5.4,2.3
	L78,62.2z"/>
<path class="st0" d="M95.8,62.6h8.2v3.1h-8.2V62.6z"/>
<path class="st0" d="M116.5,59.1c0.9-1.5,2.1-3,2-4.8c0-1.8-1.6-3.5-3.6-3.5c-2.4,0-4.2,1.1-4.4,4.2h-3.1c0.1-4.3,3-7.3,7.3-7.3
	c3.7,0,7.1,2.3,7.1,6.4c0,1.7-0.4,3.1-1.3,4.5l-8.1,12.2h9.2v2.8h-14.8L116.5,59.1z"/>
<path class="st0" d="M139.5,48l-7.2,10.6l0.1,0.1c0.6-0.4,1.4-0.3,2.2-0.4c4.4,0,7.2,3.8,7.1,7.7c0,4.8-3.5,8.1-7.8,8.1
	c-4.4,0-8.1-3-8.1-7.9c0-2.4,0.8-4.2,3.1-7.9l6.7-10.4L139.5,48z M133.8,71.2c2.7,0,4.7-2.1,4.8-5.1c0-3.1-2-5.1-4.8-5.1
	c-2.5,0-4.7,1.9-4.8,5.1C129.1,69.5,131.3,71.2,133.8,71.2z"/>
<path class="st0" d="M154.5,59.1c0.9-1.5,2.1-3,2-4.8c0-1.8-1.6-3.5-3.6-3.5c-2.4,0-4.2,1.1-4.4,4.2h-3.1c0.1-4.3,3-7.3,7.3-7.3
	c3.7,0,7.1,2.3,7.1,6.4c0,1.7-0.4,3.1-1.3,4.5l-8.2,12.1h9.2v2.8h-14.8L154.5,59.1z"/>
<path class="st0" d="M163.9,62.6h8.2v3.1h-8.2V62.6z"/>
<g>
	<path class="st0" d="M13,17.4c1-0.2,2-0.3,3.2-0.3c2.7,0,4.9,0.5,6.3,1.6c1.7,1.2,2.5,3.1,2.5,5.1c0,2.2-1,4.6-4.6,5.8
		c-1,0.4-2.6,0.6-4.6,0.6l-0.4-2.1c2.3,0,7-0.1,7-4.4c0-1.6-0.9-4.6-6.1-4.6c-1.5,0-2.6,0.2-3.5,0.3v7.8c0,1.2-0.4,2.6-3.2,2.6
		c-3.4,0-5.7-2-5.7-5c0-4.4,4.3-6,6.6-6.9v-3.7h-6V12h6.2V8.8H13V12h6v2.1h-6V17.4z M10.7,20c-1.5,0.6-4.5,1.9-4.5,4.7
		c0,1.4,1,2.9,3.4,2.9c0.9,0,1-0.3,1-0.7L10.7,20L10.7,20z M21,8.9c2.9,2.3,4.4,5.1,5.2,6.8L24,16.9c-1.1-2.2-2.4-4.6-4.8-6.7
		L21,8.9z"/>
	<path class="st0" d="M38.8,8.8V18h-7.5v13.5h-2V8.8H38.8z M36.8,10.5h-5.5v2.1h5.5V10.5z M36.8,14.1h-5.5v2.3h5.5V14.1z M45.7,28.6
		H34.5v-8.3h11.2V28.6z M43.8,22h-7.3v4.8h7.3V22z M51,29.5c0,1.3-0.3,2-1.8,2h-4l-0.2-2h3.3c0.7,0,0.7-0.3,0.7-0.7V18h-7.6V8.8H51
		V29.5z M49,10.5h-5.5v2.1H49V10.5z M49,14.1h-5.5v2.3H49V14.1z"/>
	<path class="st0" d="M58.3,10.2c-0.2,1.5-0.5,3.9-0.5,7.3c0,4,0.3,9.6,3.2,9.6c1.2,0,2.5-1,4.2-5.7l1.9,1.1c-0.8,2.4-2,4.5-3.5,6
		c-0.6,0.6-1.6,1.2-2.9,1.2c-4.1,0-5.3-5.7-5.3-12.4c0-2.8,0.3-5.6,0.4-7.3L58.3,10.2z M73.9,27.3c0.1-0.7,0.1-1.4,0.1-2.6
		c0-6.7-2-10.4-4.7-12.5l1.8-1.4c3,2.6,5.7,6.2,5.3,16.4L73.9,27.3z"/>
	<path class="st0" d="M102.3,17.7c-2.2-1-3.4-1.7-4.5-2.4v1.9H84.9v-1.9c-1.7,1.1-2.8,1.7-4.6,2.5l-1.2-2.1c4.1-1.4,8.3-4,11.1-7.7
		h2.1c3.4,4,6.7,6,11.2,7.7L102.3,17.7z M100.4,20.1v11H82.2v-11H100.4z M98.3,22h-14v7.1h13.9L98.3,22L98.3,22z M97.7,15.2
		c-3.7-2.5-5.3-4.3-6.4-5.6c-2.4,3-5,4.8-6.3,5.6C85,15.2,97.7,15.2,97.7,15.2z"/>
	<path class="st0" d="M106,14.9v-2.2h4V8.8h2.3c-0.1,4.3-0.1,4.8-0.1,7.5c2.1-1.7,4.2-3.5,8-3.5c4.6,0,7.1,3.6,7.1,7.7
		c0,8.7-8.4,9-10.7,9.1l-0.7-2.2c2.6,0,9.1-0.1,9.1-6.8c0-1.8-0.6-5.7-5.3-5.7c-2.4,0-4.7,1.2-7.5,3.8c0,2.5,0,6.8-0.1,11.6h-2.3
		l0.1-8.8c-1.1,2-2.1,3.4-3.4,4.8l-1.2-2.3c2.8-2.8,4-5.2,4.6-6.6v-2.5H106z"/>
	<path class="st0" d="M146.2,14.1c0-3.3-0.1-3.5-0.1-5.3h2.4c0,0.8,0.1,4.6,0.1,5.3L153,14v2.2l-4.4,0.1c0,0.5,0.1,2.5,0.1,2.9
		c0,3.7-0.5,5.3-3.9,5.3c-1.1,0-2.2-0.1-3.3-0.3l0.1-2.1c1.3,0.3,1.8,0.3,3,0.3c0.9,0,1.6-0.1,1.7-1.4c0.1-0.7,0.1-1.1,0.1-4.6
		l-9.2,0.2v7c0,4.4,1.9,4.4,6.5,4.4c4.2,0,5.9-0.1,7.2-0.2V30c-3.2,0.1-3.9,0.2-6.1,0.2c-6.1,0-9.9,0-9.9-6.8v-6.6l-4,0.1v-2.2
		l4-0.1V9h2.3v5.3L146.2,14.1z"/>
	<path class="st0" d="M160.1,9.2c-0.5,2.6-1.1,6-1.1,11.7c0,3,0.1,6,0.8,8.9l-2.3,0.3c-0.6-3.1-0.7-6.3-0.7-9.4
		c0-4,0.3-7.8,0.9-11.7L160.1,9.2z M177.4,13.4v2.2h-4.8l0.1,6.8c2.1,1,4,2.5,5.1,3.7l-1.5,2.1c-1-1.4-2.3-2.4-3.7-3.3v0.9
		c0,1.5,0,4.4-4.9,4.4c-4,0-5.5-2.3-5.5-4.4c0-2.7,2.4-4.5,5.6-4.5c1.3,0,1.9,0.2,2.6,0.4l-0.1-6h-7.7v-2.2h7.7l-0.1-4.3h2.3
		l0.1,4.3h4.8V13.4z M170.4,23.7c-0.6-0.3-1.3-0.6-2.6-0.6c-1.7,0-3.6,0.7-3.6,2.6c0,2,1.9,2.5,3.3,2.5c2.8,0,2.9-1.5,2.9-2.9
		L170.4,23.7L170.4,23.7z"/>
	<path class="st0" d="M185,20.6c-0.7,1-1.3,2.1-1.3,3.3c0,1,0.5,2.1,1.7,2.8c1.3,0.7,2.6,1,5.7,1c4.5,0,7.2-0.3,9.3-0.5l0.1,2.4
		c-1.6,0.1-4.6,0.4-8.5,0.4c-4.6,0-6.4-0.5-8-1.3c-1.8-1-2.6-2.8-2.6-4.6c0-1.5,0.5-2.9,1.7-4.6L185,20.6z M198.9,12.6
		c-2.4,0.3-6,1.6-8.5,3.2l-1.6-1.4c2.1-1.1,3-1.5,4.1-1.8c-1,0-9.7,0.2-10.1,0.2v-2.3c4.6,0,14.2,0,16.2,0L198.9,12.6L198.9,12.6z"
		/>
	<path class="st0" d="M225.3,11.8V14H212c-0.3,1.8-0.5,3.3-1.1,5c0.8-0.5,3.1-1.9,6.7-1.9c5.7,0,6.9,3.8,6.9,6.2
		c0,7-7.8,7.1-12.5,7.1c-1.6,0-2.5-0.1-3.3-0.1l-0.5-2.3c0.9,0.1,2.4,0.2,4.4,0.2c4.9,0,9.4-0.5,9.4-4.8c0-3.1-2.2-4.2-4.8-4.2
		c-0.7,0-4.2,0-7,2.8c-0.1,0.2-0.4,0.9-0.5,1l-2.4-0.7c1.4-3,1.9-5.9,2.3-8.3H204v-2.2h5.9c0.1-1.4,0.1-1.9,0.1-2.9l2.5,0.1
		c-0.1,1-0.1,1.4-0.3,2.9L225.3,11.8L225.3,11.8z"/>
	<path class="st0" d="M232.9,12.7c-0.6,1.9-0.8,3.4-0.8,7.2c2.6-2.1,5.5-3.1,8.8-3.1c5.9,0,7,3.8,7,5.9c0,6.1-5.9,7.5-11.4,7.5
		c-2.4,0-3.9-0.2-4.9-0.4l-0.3-2.3c1.7,0.3,3.3,0.5,5,0.5c3.5,0,6.6-0.7,8.1-2.4c0.7-0.8,1-2,1-3c0-2-1.4-3.8-4.7-3.8
		c-3.4,0-6.9,1.5-8.5,3.7c-0.1,0.3-0.1,0.3-0.1,0.5l-2.3-0.1c0-0.9,0.1-4.7,0.1-5.5c0.1-2.4,0.3-3.8,0.7-5.1L232.9,12.7z
		 M243.9,12.7c-3-1.2-6.8-1.7-10.3-1.8l0.4-2.2c2.2,0.1,6.6,0.3,10.5,1.6L243.9,12.7z"/>
</g>
<path class="st0" d="M185.6,59.2c1-1.4,2-3,2-4.8c0-1.9-1.6-3.4-3.6-3.4c-2.3,0-4.2,1.2-4.4,4.3h-3.1c0.1-4.3,3-7.2,7.2-7.2
	c3.6,0,6.9,2.2,6.9,6.3c0,1.6-0.5,3.1-1.3,4.3l-7.9,12h9v2.9h-14.5L185.6,59.2z"/>
<path class="st0" d="M197.4,52.2l8-4.5v26h-3.1V52.6l-4.9,2.9V52.2z"/>
<path class="st0" d="M216.4,59.9c-2-1-3.3-2.9-3.3-5.2c0-3.1,2.1-6.6,6.8-6.6c4.7,0,6.8,3.5,6.8,6.6c0,2.3-1.2,4.2-3.3,5.2
	c2.6,1.1,4.3,3.5,4.3,6.6c0,3.9-2.9,7.4-7.8,7.4s-7.8-3.5-7.8-7.4C212.2,63.4,213.9,61,216.4,59.9z M220,61.5
	c-2.6,0-4.7,1.9-4.7,4.8c0,3,2.1,4.9,4.7,4.9s4.7-1.9,4.7-4.9C224.7,63.4,222.5,61.5,220,61.5z M220,50.9c-2.1,0-3.7,1.6-3.7,3.8
	c0,2.2,1.6,3.7,3.7,3.7s3.7-1.6,3.7-3.7C223.6,52.5,222,50.9,220,50.9z"/>
<path class="st0" d="M233.9,62.4v-14h12.2v2.9h-9.3v7.1c1.2-0.5,2.2-0.7,3.3-0.7c3.4,0,7.8,2.6,7.8,8c0,4.5-3.4,8.2-7.9,8.2
	c-3.9,0-6.2-1.6-7.9-4.4l2.6-1.7c1.1,2.2,2.9,3.4,5.1,3.4c2.2,0,5.1-1.6,5.1-5.5c0-3.1-2.3-5.3-5.2-5.3c-1.9,0-3.6,0.7-5.3,2.2
	L233.9,62.4z"/>
</svg>
