<?xml version="1.0" encoding="utf-8"?>
<!-- Generator: Adobe Illustrator 22.1.0, SVG Export Plug-In . SVG Version: 6.00 Build 0)  -->
<svg version="1.1" id="レイヤー_1" xmlns="http://www.w3.org/2000/svg" xmlns:xlink="http://www.w3.org/1999/xlink" x="0px"
	 y="0px" width="241.5px" height="49.7px" viewBox="0 0 241.5 49.7" style="enable-background:new 0 0 241.5 49.7;"
	 xml:space="preserve">
<style type="text/css">
	.st0{fill:#003990;}
	.st1{fill:#FFFFFF;}
	.st2{fill:#333333;}
</style>
<g>
	<g>
		<path class="st0" d="M47.2,24.7c0,12.5-10.1,22.6-22.6,22.6S2,37.2,2,24.7S12.1,2.1,24.6,2.1S47.2,12.2,47.2,24.7"/>
		<path class="st1" d="M7.5,31.2l0.2,0.4L5,33.7l-0.1-0.4l0.8-0.6l-0.4-1.1h-1l-0.1-0.4H7.5z M5.9,32.4l1.2-0.9l-1.5,0.1L5.9,32.4z"
			/>
		<path class="st1" d="M8.9,34.3c0,0.3-0.2,0.6-0.5,0.9l-0.2-0.3c0.2-0.2,0.3-0.3,0.3-0.5s0-0.4-0.1-0.6c-0.1-0.2-0.3-0.4-0.6-0.4
			c-0.3-0.1-0.6,0-1,0.2C6.4,33.8,6.2,34,6,34.3c-0.1,0.2-0.1,0.5,0,0.8c0.1,0.2,0.3,0.4,0.5,0.4c0.2,0.1,0.5,0,0.8-0.2L7,34.6
			l0.3-0.2l0.6,1.1l-1.5,0.8l-0.1-0.2l0.3-0.3c-0.2,0-0.4-0.1-0.5-0.1c-0.2-0.1-0.3-0.3-0.4-0.5c-0.2-0.3-0.2-0.6-0.1-0.9
			c0.1-0.4,0.5-0.7,0.9-1C7,33.1,7.4,33,7.8,33c0.4,0.1,0.7,0.3,0.9,0.6C8.8,33.9,8.9,34.1,8.9,34.3"/>
		<polygon class="st1" points="9.4,35.1 10.7,36.8 10.4,37 9.4,35.7 8.6,36.2 9.5,37.5 9.2,37.7 8.3,36.5 7.4,37.1 8.5,38.5 
			8.1,38.7 6.9,37 		"/>
		<path class="st1" d="M12.2,39c-0.1,0.3-0.3,0.7-0.6,1s-0.7,0.5-1.1,0.6c-0.4,0.1-0.8,0-1.2-0.4C9.1,39.9,9,39.5,9,39.1
			c0.1-0.4,0.3-0.7,0.6-1.1c0.3-0.3,0.6-0.5,1-0.6c0.5-0.1,0.9,0,1.2,0.4C12.2,38.2,12.3,38.6,12.2,39 M10.5,40.2
			c0.3-0.1,0.6-0.3,0.8-0.5c0.3-0.3,0.4-0.5,0.5-0.8c0-0.3-0.1-0.5-0.3-0.8c-0.2-0.2-0.5-0.3-0.8-0.3s-0.6,0.2-0.9,0.5
			c-0.3,0.3-0.4,0.5-0.5,0.8s0,0.6,0.3,0.8C10,40.2,10.2,40.3,10.5,40.2"/>
		<path class="st1" d="M15.7,41l0.5,0.2L15.9,44l1.9-2.1l0.5,0.2L16.9,45l-0.3-0.2l0.8-1.7c0-0.1,0.1-0.2,0.1-0.3s0.1-0.3,0.2-0.4
			l-1.9,2.1l-0.4-0.2l0.4-2.8v0.1c0,0.1-0.1,0.2-0.1,0.3c-0.1,0.1-0.1,0.3-0.1,0.3L14.7,44l-0.3-0.2L15.7,41z"/>
		<polygon class="st1" points="18.6,42.2 20.6,42.8 20.5,43.2 18.8,42.7 18.5,43.6 20.1,44.1 20,44.4 18.4,44 18.1,45 19.8,45.5 
			19.7,45.9 17.7,45.3 		"/>
		<path class="st1" d="M20.9,42.9L22,43c0.4,0.1,0.7,0.3,0.8,0.6c0.2,0.3,0.2,0.7,0.1,1.1c0,0.3-0.1,0.6-0.3,0.9
			c-0.3,0.5-0.6,0.6-1.1,0.6L20.4,46L20.9,42.9z M21.5,45.8c0.1,0,0.2,0,0.3,0c0.2,0,0.3-0.1,0.4-0.3c0.1-0.1,0.2-0.3,0.2-0.5
			c0-0.1,0.1-0.2,0.1-0.3c0.1-0.4,0-0.7-0.1-0.9s-0.3-0.4-0.6-0.4l-0.7-0.1l-0.4,2.4L21.5,45.8z"/>
		
			<rect x="22.2" y="44.7" transform="matrix(3.865949e-02 -0.9993 0.9993 3.865949e-02 -21.9413 66.935)" class="st1" width="3.2" height="0.4"/>
		<path class="st1" d="M26.7,43.3c0.2,0.2,0.3,0.4,0.4,0.7h-0.4c-0.1-0.2-0.2-0.4-0.3-0.5c-0.1-0.1-0.3-0.2-0.5-0.1
			c-0.3,0-0.5,0.1-0.7,0.4C25,44,25,44.4,25,44.8s0.1,0.7,0.3,0.9c0.2,0.2,0.4,0.3,0.7,0.3c0.3,0,0.5-0.2,0.6-0.4
			c0.1-0.1,0.1-0.3,0.1-0.5h0.4c0,0.3-0.1,0.6-0.3,0.9c-0.2,0.3-0.5,0.4-0.9,0.5c-0.3,0-0.6-0.1-0.9-0.3c-0.3-0.3-0.5-0.7-0.5-1.4
			c0-0.5,0.1-0.9,0.3-1.2c0.2-0.3,0.5-0.5,1-0.6C26.2,43.1,26.5,43.1,26.7,43.3"/>
		<path class="st1" d="M28.1,42.9l0.4-0.1l1.7,2.9l-0.4,0.1l-0.5-0.9l-1.1,0.2l-0.1,1l-0.4,0.1L28.1,42.9z M29.1,44.6l-0.7-1.3
			l-0.2,1.5L29.1,44.6z"/>
		<polygon class="st1" points="29.7,42.5 30,42.4 30.9,45.1 32.3,44.6 32.4,45 30.7,45.5 		"/>
		<path class="st1" d="M35.3,39.8c0.3,0,0.6,0.1,0.9,0.4l-0.3,0.2c-0.2-0.2-0.3-0.3-0.5-0.3s-0.4,0-0.5,0.2
			c-0.2,0.1-0.3,0.4-0.4,0.6c0,0.3,0.1,0.6,0.3,1c0.2,0.3,0.4,0.5,0.7,0.6s0.5,0.1,0.8-0.1c0.2-0.1,0.3-0.3,0.4-0.6
			c0-0.2,0-0.5-0.2-0.8l-0.8,0.5l-0.2-0.3l1.1-0.7l1,1.4L37.4,42H37c0,0.2-0.1,0.4-0.1,0.5c-0.1,0.2-0.2,0.3-0.4,0.5
			c-0.3,0.2-0.6,0.2-0.9,0.2c-0.4-0.1-0.7-0.4-1-0.8c-0.3-0.4-0.4-0.9-0.4-1.3c0-0.4,0.2-0.7,0.5-0.9C34.9,39.9,35.1,39.8,35.3,39.8
			"/>
		<path class="st1" d="M36,39.2l1-0.9c0.2-0.1,0.3-0.2,0.5-0.3c0.3-0.1,0.6,0,0.8,0.3c0.1,0.1,0.2,0.3,0.2,0.4c0,0.1,0,0.3,0,0.4
			c0.1,0,0.2,0,0.3,0s0.2,0.1,0.3,0.2l0.3,0.3c0.1,0.1,0.2,0.1,0.2,0.2c0.1,0.1,0.2,0.1,0.2,0.1V40l-0.4,0.3c0,0-0.1,0-0.1-0.1
			c0,0-0.1-0.1-0.2-0.2l-0.4-0.4c-0.1-0.1-0.3-0.2-0.4-0.2c-0.1,0-0.2,0.1-0.3,0.2l-0.6,0.6l0.9,1L38,41.5L36,39.2z M38,39.4
			c0.1-0.1,0.2-0.2,0.2-0.4c0-0.1,0-0.3-0.2-0.4c-0.2-0.2-0.3-0.2-0.5-0.2c-0.1,0-0.2,0.1-0.3,0.2l-0.7,0.6l0.7,0.8L38,39.4z"/>
		<path class="st1" d="M39.8,35.9c0.3,0,0.7,0.2,1,0.5c0.4,0.3,0.6,0.6,0.7,1c0.1,0.4,0,0.8-0.3,1.2c-0.3,0.3-0.6,0.5-1,0.5
			s-0.8-0.2-1.1-0.5s-0.6-0.6-0.7-0.9c-0.2-0.4-0.1-0.9,0.2-1.2C39,36,39.3,35.9,39.8,35.9 M41.1,37.5c-0.1-0.3-0.3-0.6-0.6-0.8
			s-0.6-0.4-0.9-0.4c-0.3,0-0.5,0.1-0.7,0.3s-0.3,0.5-0.2,0.8s0.3,0.6,0.6,0.9c0.3,0.2,0.6,0.4,0.9,0.4c0.3,0,0.6-0.1,0.8-0.4
			C41.2,38,41.3,37.8,41.1,37.5"/>
		<path class="st1" d="M39.9,34.9l1.7,1c0.2,0.1,0.4,0.2,0.6,0.2c0.3,0,0.5-0.1,0.6-0.3c0.2-0.3,0.2-0.5,0-0.8
			c-0.1-0.1-0.2-0.2-0.4-0.4l-1.7-1l0.2-0.3l1.6,0.9c0.3,0.2,0.6,0.4,0.7,0.6c0.2,0.3,0.2,0.7,0,1.2c-0.3,0.4-0.6,0.6-1,0.6
			c-0.2,0-0.5-0.1-0.9-0.3l-1.6-0.9L39.9,34.9z"/>
		<path class="st1" d="M41,32.9l0.5-1.2c0.1-0.2,0.3-0.4,0.5-0.5s0.4-0.1,0.7,0c0.2,0.1,0.4,0.2,0.5,0.4c0.1,0.2,0.1,0.4,0,0.7
			l-0.3,0.8l1.3,0.5L44,34.2L41,32.9z M42,31.7c-0.1,0.1-0.1,0.2-0.2,0.3l-0.3,0.7l1,0.4l0.3-0.7c0.1-0.2,0.1-0.3,0-0.4
			c0-0.1-0.1-0.2-0.3-0.3C42.3,31.6,42.1,31.6,42,31.7"/>
		<path class="st1" d="M19,4.1l0.7-0.2l1.8,2.9L20.8,7l-0.3-0.6l-1.1,0.3v0.7l-0.6,0.2L19,4.1z M19.4,6l0.8-0.2l-0.7-1.1L19.4,6z"/>
		<path class="st1" d="M25.4,3.4h0.9l-0.1,3.2h-0.6V4.4c0-0.1,0-0.2,0-0.3c0-0.1,0-0.2,0-0.3L25,6.5h-0.6L24,3.9C24,4,24,4,24,4.2
			s0,0.2,0,0.3v2.2h-0.6V3.5h0.9L24.8,6L25.4,3.4z"/>
		<path class="st1" d="M30.8,5.3c0-0.2-0.1-0.4-0.2-0.5s-0.2-0.1-0.3-0.2c-0.2-0.1-0.5,0-0.7,0.1s-0.4,0.4-0.4,0.8
			c-0.1,0.4-0.1,0.7,0,0.9c0.1,0.2,0.3,0.3,0.5,0.4s0.4,0,0.6-0.1s0.3-0.2,0.4-0.4L30,6.1l0.1-0.5l1.2,0.3l-0.4,1.7l-0.4-0.1V7.1
			c-0.2,0.1-0.3,0.2-0.4,0.2c-0.2,0.1-0.4,0.1-0.6,0c-0.4-0.1-0.7-0.3-0.8-0.7c-0.2-0.4-0.2-0.8-0.1-1.3s0.4-0.9,0.7-1.1
			C29.6,4,30,4,30.4,4.1s0.6,0.3,0.8,0.5c0.2,0.3,0.2,0.5,0.2,0.9L30.8,5.3z"/>
		<path class="st1" d="M18.7,18.5l4.8-8.4c0,0,1.1-1.9,2.4,0.1c0.7,1,4.7,8.1,4.7,8.1l-3.8,2.3l-1.1-1.8c0,0-0.6-0.9-0.6,0.2
			c0,0.6,0,4.8,0,4.9c0,0.4,0.1,0.6,0.5,0.8c0.5,0.3,3.7,2.2,3.7,2.2l0.5,0.3c0,0,0.8,0.4,0.5-0.4c-0.1-0.2-0.5-0.9-0.5-0.9
			l-0.9-1.5l3.8-2.3l5.2,8.9c0,0,1.4,2.2-1.1,2.3c-0.2,0-10.2,0-10.2,0v-4.7h2.5c0,0,1.2-0.1,0.2-0.7c-0.7-0.4-3.7-2.1-3.9-2.3
			c-0.2-0.1-0.6-0.4-1.2,0c-0.7,0.4-3.9,2.2-3.9,2.2s-1.4,0.8,0,0.8c1.5,0,2.2,0,2.2,0v4.7h-9.8c0,0-2.6,0.1-1-2.6
			c0.2-0.3,5-8.6,5-8.6l3.8,2.2l-1.3,2.4c0,0-0.6,1,0.5,0.5c0.2-0.1,3.7-2.2,4-2.3c0.4-0.3,0.6-0.2,0.6-1.5c0-1.4,0-4,0-4
			s0-1.7-0.8-0.3c-0.1,0.1-0.9,1.6-0.9,1.6L18.7,18.5z"/>
	</g>
	<g>
		<path class="st2" d="M73.3,6.8v1.9h-4.5c0.6,1.5,1.1,2.2,1.4,3.6l-2,0.6c-0.4-1.5-0.7-2.7-1.5-4.2H66c-1,1.6-1.7,2.5-3.1,3.6
			l-1.6-1.5c1.3-1.2,3.1-3,4.3-6.7l2.2,0.4c-0.4,1.1-0.5,1.6-1,2.2C66.9,6.8,73.3,6.8,73.3,6.8z M84.4,28.1H63.6V14.3H73V12h2v2.3
			h9.4V28.1z M72.9,16.3h-7.3v3.8h7.3V16.3z M72.9,21.9h-7.3v4.2h7.3V21.9z M86.2,6.8v1.9h-5.7c0.6,1.2,1.2,2.2,1.6,3.5L80,13
			c-0.2-0.7-1.1-2.7-1.8-4.2h-1.9c-1.1,1.7-1.6,2.3-2.3,3.2l-1.7-1.3c0.8-1,2.6-2.7,3.8-6.5l2.1,0.3c-0.1,0.6-0.4,1.3-1,2.3H86.2
			L86.2,6.8z M82.2,16.3h-7.3v3.8h7.4L82.2,16.3L82.2,16.3z M82.2,21.9h-7.3v4.2h7.4L82.2,21.9L82.2,21.9z"/>
		<path class="st2" d="M107.3,4.5c-0.3,1.6-0.6,2.5-1.1,3.9h9.8v2c-0.5,2.4-2.1,5.4-2.9,6.8l-2-1c1.1-1.6,2.3-3.9,2.7-5.8h-8.6
			c-1.1,2.1-1.7,3.3-2.9,4.4l-1.6-1.6v11.6h-8V6h8.1v7.1c0.6-0.7,3.1-3.4,4.1-8.9L107.3,4.5z M99.1,8H95v15h4.1V8z M109.2,14.1
			c0,2.4,0.7,5.4,2.5,7.8c1.8,2.6,3.9,3.9,5.1,4.6l-1.4,1.9c-5.1-3.3-6.4-7.6-7.1-9.7c-1.6,6.7-6.2,9-7.7,9.7l-1.3-2
			c5.7-2.5,7.7-7.2,7.7-12.4v-2.3h2.2L109.2,14.1L109.2,14.1z"/>
		<path class="st2" d="M133.2,8.7V4.2h2.2v4.5h10v12.4h-10v7.5h-2.2v-7.5h-9.9V8.7H133.2z M133.2,11h-7.7v8.1h7.7V11z M143.2,11
			h-7.9v8.1h7.9V11z"/>
		<path class="st2" d="M163.5,4.2h2.2v3.1h8.4v9h2.7v2.1h-10.1c1.5,3.8,4.9,6.4,10.5,7.9l-1.2,2.2c-3.3-1.1-9-3.4-11.2-9.7
			c-1.3,3.5-4.5,7.7-11.4,9.8l-1.3-2.2c5.1-1.3,8.8-3.7,10.5-8h-10.1v-2.1h2.7V7.4h8.3L163.5,4.2L163.5,4.2z M163.5,9.4h-6.2v6.9
			h5.8c0.3-1.6,0.4-3.1,0.4-3.8V9.4z M165.6,12.5c0,0.7,0,2.3-0.2,3.7h6.5V9.4h-6.2v3.2L165.6,12.5L165.6,12.5z"/>
		<path class="st2" d="M187.3,6.6h8.2V4.3h2.2v2.3h10v1.9h-18.4v6.9c0,4.3-0.7,9.4-3.9,13.1l-1.7-1.6c1.5-1.8,2.6-3.7,3.3-7.9
			c-0.4,0.2-1.9,1.1-3.6,1.9l-0.4-2.3c1.6-0.5,3.2-1.3,4.2-1.8c0-0.4,0-1.1,0-1.3L187.3,6.6L187.3,6.6z M184.5,14.3
			c-0.2-1.8-1.1-3.9-1.5-5l1.7-0.7c0.5,1.2,1.3,3.1,1.7,5L184.5,14.3z M206.8,15.6v10.9c0,0.5,0,2-1.9,2h-3.2l-0.4-2.1h2.3
			c0.8,0,1.2-0.1,1.2-1.1v-8h-4.9c0.6,1.6,1.6,3.4,4.8,5.5l-1.3,1.7c-1.8-1.5-3.6-3.1-4.8-5.9c-0.6,1.9-1.5,3.9-4.1,5.9l-1.3-1.7
			c2.6-1.7,3.4-3.6,3.9-5.6h-4v11.2H191V15.6h6.4c0.1-1.1,0.1-1.9,0.1-2.7h-7.4V11h17.5v1.9h-8.2c-0.1,1-0.1,1.7-0.2,2.7
			C199.2,15.6,206.8,15.6,206.8,15.6z"/>
		<path class="st2" d="M222.1,5.1v1.8c-0.6,2.3-1.1,3.4-2.3,6.3c2.3,2.7,2.3,5.7,2.3,6.2c0,0.7,0,3.9-3.1,3.9h-1.3l-0.3-2.1h1.4
			c1.2,0,1.3-1.3,1.3-2c0-2-1.1-4.2-2.3-5.8c0.7-1.6,1.7-3.7,2.2-6.3h-3.1v21.6h-2.1V5.1H222.1z M233.2,18v7.5c0,0.4,0,0.8,0.7,0.8
			h1.4c0.8,0,1.2,0,1.3-3.6l2.1,0.5c-0.3,4.6-0.6,5-2.7,5h-2.7c-1.9,0-2-0.5-2-2.4V18h-2.6c-0.1,7.6-4.5,9.6-7.1,10.5l-1.1-1.9
			c3.4-1.1,5.9-3.1,5.9-8.6h-4v-2h16.2v2C238.6,18,233.2,18,233.2,18z M231.4,4.3v2.4h6.7v5.5h-2V8.6h-11.3v3.6h-2V6.7h6.7V4.3
			H231.4z M225.1,13.3v-1.9h10.5v1.9H225.1z"/>
	</g>
	<g>
		<path class="st2" d="M62.3,37.1h4.9v1h-3.8v2.4H67v1h-3.6v3.4h-1.1C62.3,44.9,62.3,37.1,62.3,37.1z"/>
		<path class="st2" d="M70.5,37.1v4.8c0,0.2,0,0.5,0.1,0.8s0.2,0.5,0.3,0.7c0.2,0.2,0.4,0.4,0.6,0.5s0.6,0.2,0.9,0.2
			c0.4,0,0.7-0.1,0.9-0.2c0.2-0.1,0.5-0.3,0.6-0.5c0.2-0.2,0.3-0.5,0.3-0.7c0.1-0.3,0.1-0.5,0.1-0.8v-4.8h1.1V42
			c0,0.5-0.1,0.9-0.2,1.2c-0.2,0.4-0.4,0.7-0.6,1c-0.3,0.3-0.6,0.5-1,0.6S72.8,45,72.4,45s-0.8-0.1-1.2-0.2c-0.4-0.1-0.7-0.4-1-0.6
			c-0.3-0.3-0.5-0.6-0.6-1c-0.2-0.4-0.2-0.8-0.2-1.2v-4.9H70.5z"/>
		<path class="st2" d="M78.4,37.1h5v1h-4v2.3h3.7v1h-3.7v2.5h4.2v1h-5.2V37.1z"/>
		<path class="st2" d="M86.1,37.1H91v1h-3.8v2.4h3.6v1h-3.6v3.4h-1.1V37.1z"/>
		<path class="st2" d="M94.3,37.1v4.8c0,0.2,0,0.5,0.1,0.8s0.2,0.5,0.3,0.7c0.2,0.2,0.4,0.4,0.6,0.5s0.6,0.2,0.9,0.2
			c0.4,0,0.7-0.1,0.9-0.2c0.2-0.1,0.5-0.3,0.6-0.5c0.2-0.2,0.3-0.5,0.3-0.7c0.1-0.3,0.1-0.5,0.1-0.8v-4.8h1.1V42
			c0,0.5-0.1,0.9-0.2,1.2c-0.2,0.4-0.4,0.7-0.6,1c-0.3,0.3-0.6,0.5-1,0.6S96.6,45,96.2,45s-0.8-0.1-1.2-0.2c-0.4-0.1-0.7-0.4-1-0.6
			c-0.3-0.3-0.5-0.6-0.6-1c-0.2-0.4-0.2-0.8-0.2-1.2v-4.9H94.3z"/>
		<path class="st2" d="M102.2,37.1h1.1v3.4h0.1l3.4-3.4h1.5l-3.8,3.6l4,4.2H107l-3.6-3.9h-0.1v3.9h-1.1
			C102.2,44.9,102.2,37.1,102.2,37.1z"/>
		<path class="st2" d="M110.6,37.1h1.1v7.8h-1.1V37.1z"/>
		<path class="st2" d="M124.3,38.8c-0.2-0.3-0.5-0.5-0.8-0.7s-0.7-0.2-1-0.2c-0.4,0-0.8,0.1-1.2,0.2c-0.4,0.2-0.7,0.4-0.9,0.7
			c-0.3,0.3-0.4,0.6-0.6,1c-0.1,0.4-0.2,0.8-0.2,1.2s0.1,0.8,0.2,1.2s0.3,0.7,0.6,1c0.2,0.3,0.6,0.5,0.9,0.7
			c0.4,0.2,0.8,0.2,1.2,0.2c0.4,0,0.8-0.1,1.2-0.3c0.3-0.2,0.6-0.4,0.9-0.8l0.9,0.7c-0.1,0.1-0.2,0.2-0.3,0.3
			c-0.1,0.1-0.3,0.3-0.6,0.4c-0.2,0.2-0.5,0.3-0.9,0.4c-0.3,0.1-0.7,0.2-1.2,0.2c-0.6,0-1.2-0.1-1.7-0.4c-0.5-0.2-0.9-0.5-1.3-0.9
			c-0.3-0.4-0.6-0.8-0.8-1.3c-0.2-0.5-0.3-1-0.3-1.5c0-0.6,0.1-1.2,0.3-1.7c0.2-0.5,0.5-0.9,0.8-1.3c0.4-0.4,0.8-0.7,1.3-0.9
			s1-0.3,1.6-0.3c0.5,0,1,0.1,1.5,0.3s0.9,0.5,1.2,0.9L124.3,38.8z"/>
		<path class="st2" d="M127.6,37.1h5v1h-4v2.3h3.7v1h-3.7v2.5h4.2v1h-5.2C127.6,44.9,127.6,37.1,127.6,37.1z"/>
		<path class="st2" d="M135.3,37.1h1.4l4.3,6.4l0,0v-6.4h1.1v7.8h-1.3l-4.3-6.4l0,0v6.4h-1.1L135.3,37.1L135.3,37.1z"/>
		<path class="st2" d="M146.7,38.1h-2.5v-1h6.1v1h-2.5v6.8h-1.1V38.1z"/>
		<path class="st2" d="M152.4,37.1h2.7c0.5,0,0.9,0.1,1.2,0.2c0.3,0.1,0.6,0.3,0.8,0.5s0.3,0.4,0.4,0.7c0.1,0.3,0.1,0.5,0.1,0.8
			c0,0.2,0,0.5-0.1,0.7s-0.2,0.4-0.4,0.6c-0.2,0.2-0.4,0.3-0.6,0.5c-0.2,0.1-0.5,0.2-0.8,0.2l2.2,3.5h-1.3l-2-3.4h-1.2v3.4h-1.1
			v-7.7H152.4z M153.5,40.5h1.4c0.2,0,0.4,0,0.6,0c0.2,0,0.4-0.1,0.5-0.2c0.2-0.1,0.3-0.2,0.4-0.4c0.1-0.2,0.1-0.4,0.1-0.6
			c0-0.3,0-0.5-0.1-0.6c-0.1-0.2-0.2-0.3-0.4-0.4c-0.2-0.1-0.3-0.1-0.5-0.2c-0.2,0-0.4,0-0.6,0h-1.4V40.5z"/>
		<path class="st2" d="M163.1,37.1h1l3.3,7.8h-1.2l-0.8-1.9h-3.7l-0.8,1.9h-1.2L163.1,37.1z M165,42l-1.4-3.6l0,0l-1.5,3.6H165z"/>
		<path class="st2" d="M169.5,37.1h1.1v6.8h3.6v1h-4.6v-7.8H169.5z"/>
		<path class="st2" d="M180.5,37.1h1.1v3.2h4v-3.2h1.1v7.8h-1.1v-3.6h-4v3.6h-1.1V37.1z"/>
		<path class="st2" d="M193.2,45.1c-0.6,0-1.1-0.1-1.6-0.3s-0.9-0.5-1.3-0.9c-0.4-0.4-0.6-0.8-0.8-1.3s-0.3-1-0.3-1.6
			s0.1-1.1,0.3-1.6s0.5-0.9,0.8-1.3c0.4-0.4,0.8-0.7,1.3-0.9s1-0.3,1.6-0.3s1.1,0.1,1.6,0.3s0.9,0.5,1.3,0.9
			c0.4,0.4,0.6,0.8,0.8,1.3s0.3,1,0.3,1.6s-0.1,1.1-0.3,1.6s-0.5,0.9-0.8,1.3c-0.4,0.4-0.8,0.7-1.3,0.9
			C194.4,45,193.8,45.1,193.2,45.1z M193.2,44.1c0.4,0,0.8-0.1,1.2-0.2c0.4-0.2,0.7-0.4,0.9-0.7c0.3-0.3,0.5-0.6,0.6-1
			s0.2-0.8,0.2-1.2s-0.1-0.8-0.2-1.2c-0.1-0.4-0.3-0.7-0.6-1s-0.6-0.5-0.9-0.7c-0.4-0.2-0.8-0.2-1.2-0.2s-0.8,0.1-1.2,0.2
			c-0.4,0.2-0.7,0.4-0.9,0.7c-0.3,0.3-0.5,0.6-0.6,1s-0.2,0.8-0.2,1.2s0.1,0.8,0.2,1.2c0.1,0.4,0.3,0.7,0.6,1s0.6,0.5,0.9,0.7
			C192.4,44,192.8,44.1,193.2,44.1z"/>
		<path class="st2" d="M200,43.3c0.2,0.3,0.4,0.5,0.7,0.6s0.6,0.2,0.9,0.2c0.2,0,0.4,0,0.5-0.1c0.2-0.1,0.3-0.1,0.5-0.2
			c0.1-0.1,0.3-0.2,0.4-0.4c0.1-0.2,0.1-0.3,0.1-0.6s-0.1-0.5-0.3-0.7s-0.4-0.3-0.7-0.4c-0.3-0.1-0.6-0.2-0.9-0.3
			c-0.3-0.1-0.6-0.2-0.9-0.4c-0.3-0.2-0.5-0.4-0.7-0.7s-0.3-0.7-0.3-1.2c0-0.2,0-0.5,0.1-0.7c0.1-0.3,0.3-0.5,0.5-0.7
			s0.5-0.4,0.8-0.5s0.7-0.2,1.2-0.2c0.4,0,0.8,0.1,1.2,0.2c0.4,0.1,0.7,0.4,1,0.7l-0.9,0.8c-0.1-0.2-0.3-0.4-0.6-0.5
			c-0.2-0.1-0.5-0.2-0.8-0.2s-0.5,0-0.7,0.1s-0.3,0.2-0.5,0.3c-0.1,0.1-0.2,0.3-0.2,0.4c0,0.1-0.1,0.3-0.1,0.4
			c0,0.3,0.1,0.6,0.3,0.8s0.4,0.3,0.7,0.4c0.3,0.1,0.6,0.2,0.9,0.3c0.3,0.1,0.6,0.2,0.9,0.4c0.3,0.2,0.5,0.4,0.7,0.6
			c0.2,0.3,0.3,0.6,0.3,1.1c0,0.4-0.1,0.7-0.2,1c-0.1,0.3-0.3,0.6-0.6,0.8c-0.2,0.2-0.5,0.4-0.9,0.5c-0.3,0.1-0.7,0.2-1.1,0.2
			c-0.5,0-1-0.1-1.4-0.3s-0.8-0.4-1.1-0.8L200,43.3z"/>
		<path class="st2" d="M206.9,37.1h2.7c0.5,0,0.9,0.1,1.2,0.2c0.3,0.1,0.6,0.3,0.8,0.5s0.3,0.4,0.4,0.7c0.1,0.3,0.1,0.5,0.1,0.8
			c0,0.2,0,0.5-0.1,0.8s-0.2,0.5-0.4,0.7s-0.4,0.4-0.8,0.5c-0.3,0.1-0.7,0.2-1.2,0.2H208v3.4h-1.1V37.1z M208,40.5h1.4
			c0.2,0,0.4,0,0.6,0c0.2,0,0.4-0.1,0.5-0.2c0.2-0.1,0.3-0.2,0.4-0.4c0.1-0.2,0.1-0.4,0.1-0.6c0-0.3,0-0.5-0.1-0.6
			c-0.1-0.2-0.2-0.3-0.4-0.4c-0.2-0.1-0.3-0.1-0.5-0.2c-0.2,0-0.4,0-0.6,0H208V40.5z"/>
		<path class="st2" d="M214.4,37.1h1.1v7.8h-1.1V37.1z"/>
		<path class="st2" d="M220.1,38.1h-2.5v-1h6.1v1h-2.5v6.8h-1.1V38.1z"/>
		<path class="st2" d="M227.6,37.1h1l3.3,7.8h-1.2l-0.8-1.9h-3.7l-0.8,1.9h-1.2L227.6,37.1z M229.4,42l-1.4-3.6l0,0l-1.5,3.6H229.4z
			"/>
		<path class="st2" d="M234,37.1h1.1v6.8h3.6v1H234V37.1z"/>
	</g>
</g>
</svg>
